<svg xmlns="http://www.w3.org/2000/svg" xml:space="preserve" style="enable-background:new 0 0 24 24" viewBox="0 0 24 24"><path d="M0 0h24v24H0V0z" style="fill:none"/><path d="M12 2C6.5 2 2 6.5 2 12s4.5 10 10 10 10-4.5 10-10S17.5 2 12 2zM7.1 18.3c.4-.9 3-1.8 4.9-1.8s4.5.9 4.9 1.8c-1.3 1.1-3 1.7-4.9 1.7s-3.6-.6-4.9-1.7zm11.3-1.5c-1.4-1.7-4.9-2.3-6.4-2.3s-4.9.6-6.4 2.3c-1-1.3-1.6-3-1.6-4.8 0-4.4 3.6-8 8-8s8 3.6 8 8c0 1.8-.6 3.5-1.6 4.8zM12 6c-1.9 0-3.5 1.6-3.5 3.5S10.1 13 12 13s3.5-1.6 3.5-3.5S13.9 6 12 6zm0 5c-.8 0-1.5-.7-1.5-1.5S11.2 8 12 8s1.5.7 1.5 1.5S12.8 11 12 11z" style="fill:#434343"/></svg>