<svg xmlns="http://www.w3.org/2000/svg" xml:space="preserve" style="enable-background:new 0 0 23 23" viewBox="0 0 23 23"><path d="M-.5 1.7h24v24h-24v-24z" style="fill:none"/><path d="M16 2.4c-1.7 0-3.4.8-4.5 2.1C10.4 3.2 8.7 2.4 7 2.4c-3.1 0-5.5 2.4-5.5 5.5 0 3.8 3.4 6.9 8.6 11.5l1.4 1.3 1.4-1.3c5.2-4.7 8.6-7.8 8.6-11.5 0-3.1-2.4-5.5-5.5-5.5zm-4.4 15.5-.1.1-.1-.1c-4.8-4.3-7.9-7.1-7.9-10 0-2 1.5-3.5 3.5-3.5 1.5 0 3 1 3.6 2.4h1.9c.5-1.4 2-2.4 3.5-2.4 2 0 3.5 1.5 3.5 3.5 0 2.9-3.1 5.7-7.9 10z" style="fill:#333"/></svg>