<svg xmlns="http://www.w3.org/2000/svg" xml:space="preserve" style="fill-rule:evenodd;clip-rule:evenodd;stroke-linejoin:round;stroke-miterlimit:2" viewBox="0 0 3665 955"><path d="M0 5.694c-6 1.639-9.579-2.591-9.579-2.591L10.004-9.911C10.186-4.085 5.974 4.062 0 5.694m-3.034 44.023c-1.794 1.798-3.63 4.576-4.903 7.548 0 0-2.638-2.689-1.23-6.791 1.418-4.104 3.164-6.033 5.005-6.033 1.839 0 3.016 3.396 1.128 5.276m-22.252 15.039-9.769-.034c-10.803 0-19.562-8.756-19.562-19.565 0-2.763.581-5.396 1.617-7.783L-58.13 8.27c-5.047-4.306-8.254-10.706-8.254-17.859v-19.473c0 6.428-5.209 11.644-11.642 11.644h-33.343s39.127-23.479 39.127-23.525c-4.918 0-14.671-8.343-14.671-19.19 0-11.564 15.14-29.177 16.089-38.131l.076-.798c.207.286 1.44 2.244 1.44 7.628 0 5.869-2.183 14.485-2.873 22.283-.662 7.485 4.443 13.223 16.523 16.508 11.871 3.229 30.372 3.81 30.372 3.742V64.756ZM75.492-15.586 45.684-33.471s-2.33-6.655-6.775-13.769c2.156-3.723 3.568-8.096 3.568-12.879 0-8-4.983-16.815-9.8-25.34-2.702-4.777-5.038-8.957-6.396-13.029-1.012-3.296-1.861-6.992-1.861-9.028 0-2.097.288-3.571-1.562-3.928-2.352-.452-7.146 4.637-9.098 13.534l.004.001c-.407 1.589-.691 3.64-.691 6.49 0 3.767.721 8.14 1.484 12.771.256 1.511.502 3.042.735 4.564-19.239-19.239-40.459-27.448-40.459-27.448v11.667c-16.958-4.03-31.318.03-31.318.03l8.024 8.021c-6.316 2.082-13.275 5.957-17.298 8.922-.004.002-.011 0-.013.002.269-1.913.584-3.852.902-5.758.758-4.631 1.482-9.004 1.482-12.771 0-2.851-.283-4.902-.691-6.491h.001a.062.062 0 0 1-.003-.01.284.284 0 0 0-.008-.034c-1.959-8.87-6.741-13.942-9.087-13.49-1.85.357-1.564 1.831-1.564 3.928 0 2.044-.45 5.139-1.654 8.413l-.02.034c-1.32 4.254-3.748 8.609-6.574 13.61-4.819 8.525-9.802 17.34-9.802 25.34 0 4.72 1.378 9.035 3.484 12.724-4.202 6.756-6.741 13.924-6.741 13.924l-29.808 17.885c-1.936 1.121-1.141 4.082 1.097 4.082h22.044s-4.509 21 1.232 47.704a34.155 34.155 0 0 1 9.576-12.517c-.285 3.104-.206 7.709-.206 10.881 0 18.963 12.36 37.066 12.36 48.588a34.192 34.192 0 0 0 9.573-12.511c10.495 19.771 24.946 36.136 44.999 46.949V94.128a42.69 42.69 0 0 1 11.966 15.638C1.416 99.44 11.495 86.324 19.819 70.641a34.202 34.202 0 0 0 9.577 12.511c0-11.522 12.357-29.625 12.357-48.588 0-3.172.08-7.777-.203-10.881 7.183 6.24 9.354 11.906 9.555 12.461 5.625-24.043 1.246-47.648 1.246-47.648h22.045c2.237 0 3.032-2.961 1.096-4.082" style="fill:#00000a;fill-rule:nonzero" transform="translate(528.962 464.46) scale(4.16667)"/><path d="M1.519-13.043c1.764-.518 3.855 2.407 2.578 4.742C2.877-6.069 1.901-2.886 1.519.324c0 0-3.297-1.833-3.094-6.169.2-4.336 1.329-6.679 3.094-7.198" style="fill:#00000a;fill-rule:nonzero" transform="matrix(-3.9975 1.17519 1.17519 3.9975 357.579 700.002)"/><path d="M0 13.966c6 1.639 9.58-2.591 9.58-2.591L-10.004-1.639C-10.186 4.187-5.974 12.334 0 13.966" style="fill:#00000a;fill-rule:nonzero" transform="translate(318.833 430.001) scale(4.16667)"/><path d="M0 23.216c-6.405 0-11.601-5.207-11.601-11.606C-11.601 5.201-6.405 0 0 0c6.405 0 11.612 5.201 11.612 11.61 0 6.399-5.207 11.606-11.612 11.606M0-1.688c-7.322 0-13.292 5.961-13.292 13.298 0 7.339 5.97 13.294 13.292 13.294 7.34 0 13.298-5.955 13.298-13.294C13.298 4.273 7.34-1.688 0-1.688" style="fill:#00000a;fill-rule:nonzero" transform="translate(3609.214 310.126) scale(4.16667)"/><path d="M0-1.989h-4.416v-5.094H.499c1.158 0 1.983.232 2.522.702.529.47.798 1.073.798 1.792 0 .494-.131.969-.401 1.388a2.383 2.383 0 0 1-1.21.929C1.68-2.075.946-1.989 0-1.989M2.81.483c-.282-.255-.694-.516-1.234-.772 1.487-.209 2.581-.696 3.298-1.456.723-.76 1.084-1.694 1.084-2.798 0-.863-.224-1.654-.648-2.36-.442-.708-1.009-1.207-1.738-1.493-.717-.279-1.76-.416-3.154-.416h-6.887V6.823h2.053V-.136h2.386c.527 0 .912.029 1.141.075.321.08.642.225.935.429.321.204.665.545 1.055 1.039.384.504.878 1.217 1.479 2.158l2.053 3.258h2.581l-2.69-4.255C3.996 1.731 3.418 1.031 2.81.483" style="fill:#00000a;fill-rule:nonzero" transform="translate(3611.177 362.168) scale(4.16667)"/><path d="M0-81.573h-25.466L-54.65-44.314v-37.259h-24.38V0h24.38v-38.68L-27.788 0H1.078l-30.682-43.698L0-81.573Z" style="fill:#00000a;fill-rule:nonzero" transform="translate(2513.18 645.793) scale(4.16667)"/><path d="M0 47.444c-16.079-2.682-20.303-15.953-20.303-23.87h-.008C-20.303 15.664-16.079 2.391 0-.295 10.373-2.027 20.661 4.137 21.463 4.45v-17.688c-4.954-2.35-13.18-5.825-27.1-5.129-13.289.665-39.051 8.332-39.051 41.982l.012.446c1.273 33.644 23.987 40.404 39.039 41.454 13.992.992 22.146-2.784 27.112-5.134V42.684c-.803.332-11.102 6.505-21.475 4.76" style="fill:#00000a;fill-rule:nonzero" transform="translate(2066.647 378.835) scale(4.16667)"/><path d="m0-81.528-17.277 26.98-17.244-26.98h-24.797l29.172 46.855V0h25.753v-34.696l29.177-46.832H0Z" style="fill:#00000a;fill-rule:nonzero" transform="translate(2799.347 646.043) scale(4.16667)"/><path d="M0-81.573h-25.202l-29.445 37.259v-37.259h-24.377V0h24.377v-38.68L-27.954 0H1.09l-30.707-43.698L0-81.573Z" style="fill:#00000a;fill-rule:nonzero" transform="translate(3541.01 645.793) scale(4.16667)"/><path d="M0 52.385h-14.23V32.751H0c5.424 0 9.823 4.392 9.823 9.809A9.82 9.82 0 0 1 0 52.385M-14.23.013h13.161c5.026 0 9.088 4.046 9.088 9.058a9.08 9.08 0 0 1-9.088 9.084H-14.23V.013Zm32.356 22.396-.722-.284.693-.355c7.444-3.713 11.05-9.216 11.05-16.825 0-4.574-1.691-19.539-23.275-19.539h-44.487v81.573h50.273c12.762 0 21.687-9.488 21.687-23.064 0-10.562-4.679-17.182-15.219-21.506" style="fill:#00000a;fill-rule:nonzero" transform="translate(1117.183 366.71) scale(4.16667)"/><path d="M0-81.573-32.19 0h23.608l21.217-56.305c.081-.226.433-.619.712.094L34.581 0h23.803L25.87-81.573H0Z" style="fill:#00000a;fill-rule:nonzero" transform="translate(1664.059 645.793) scale(4.16667)"/><path d="M0-81.573-32.188 0h23.609l21.211-56.305c.086-.226.441-.619.711.094L34.589 0h23.792L25.873-81.573H0Z" style="fill:#00000a;fill-rule:nonzero" transform="translate(2954.01 645.793) scale(4.16667)"/><path d="M0-81.573h-24.376V0h58.117v-17.759H0v-63.814Z" style="fill:#00000a;fill-rule:nonzero" transform="translate(1376.709 645.793) scale(4.16667)"/></svg>