<?xml version="1.0" encoding="utf-8"?>
<!-- Generator: Adobe Illustrator 25.2.1, SVG Export Plug-In . SVG Version: 6.00 Build 0)  -->
<svg version="1.1" id="레이어_1" xmlns="http://www.w3.org/2000/svg" xmlns:xlink="http://www.w3.org/1999/xlink" x="0px"
	 y="0px" viewBox="0 0 24 24" style="enable-background:new 0 0 24 24;" xml:space="preserve">
<style type="text/css">
	.st0{fill:#FFFFFF;}
	.st1{fill:none;}
</style>
<path class="st0" d="M20.1,18.5l-2.6-2.6l0,0l-0.9-0.9l0,0l-0.9-0.9c0.8-1.2,1.3-2.6,1.3-4.1C17.1,6.2,14,3,10.1,3
	C6.2,3,3,6.2,3,10.1c0,3.9,3.2,7.1,7.1,7.1c1.5,0,2.9-0.5,4.1-1.3l0.8,0.8v0l1,1l0,0l2.6,2.6c0.2,0.2,0.5,0.3,0.8,0.3
	s0.6-0.1,0.8-0.3C20.6,19.7,20.6,19,20.1,18.5z M10.1,14.9c-2.7,0-4.9-2.2-4.9-4.9c0-2.7,2.2-4.9,4.9-4.9c2.7,0,4.9,2.2,4.9,4.9
	C14.9,12.8,12.8,14.9,10.1,14.9z"/>
<path class="st1" d="M0,0h24v24H0V0z"/>
</svg>
