<?xml version="1.0" encoding="utf-8"?>
<!-- Generator: Adobe Illustrator 25.2.1, SVG Export Plug-In . SVG Version: 6.00 Build 0)  -->
<svg version="1.1" id="레이어_1" xmlns="http://www.w3.org/2000/svg" xmlns:xlink="http://www.w3.org/1999/xlink" x="0px"
	 y="0px" viewBox="0 0 33 39.1" style="enable-background:new 0 0 33 39.1;" xml:space="preserve">
<style type="text/css">
	.st0{fill:#FFFFFF;}
	.st1{fill:none;}
	.st2{fill:#B90019;}
</style>
<g id="다각형_1_1_" transform="translate(2 46.261) rotate(-90)">
	<path class="st0" d="M7.8,5.4C7.4,4.7,7.2,3.9,7.2,3c0-2.8,2.2-5,5-5h23.2c0.9,0,1.7,0.2,2.4,0.6C40.2,0,41.1,3,39.7,5.4L28.1,26.2
		c-0.5,0.8-1.1,1.5-1.9,1.9c-2.4,1.3-5.5,0.5-6.8-1.9L7.8,5.4z"/>
	<path class="st0" d="M23.8,27.8c1.5,0,2.8-0.8,3.5-2L38.9,5c0.7-1.3,0.7-2.7,0-4c-0.7-1.2-2-2-3.5-2H12.2c-1.4,0-2.7,0.7-3.5,2
		C8,2.2,8,3.7,8.7,5l11.6,20.8C21,27,22.3,27.8,23.8,27.8 M19.4,26.2L7.8,5.4C5.9,2.1,8.3-2,12.2-2h23.2c3.8,0,6.2,4.1,4.4,7.4
		L28.1,26.2c-1,1.7-2.7,2.6-4.4,2.6S20.4,27.9,19.4,26.2z"/>
</g>
<g id="다각형_1" transform="translate(2 46.261) rotate(-90)">
	<path class="st1" d="M7.8,5.4C7.4,4.7,7.2,3.9,7.2,3c0-2.8,2.2-5,5-5h23.2c0.9,0,1.7,0.2,2.4,0.6C40.2,0,41.1,3,39.7,5.4L28.1,26.2
		c-0.5,0.8-1.1,1.5-1.9,1.9c-2.4,1.3-5.5,0.5-6.8-1.9L7.8,5.4z"/>
	<path class="st2" d="M23.8,27.8c1.5,0,2.8-0.8,3.5-2L38.9,5c0.7-1.3,0.7-2.7,0-4c-0.7-1.2-2-2-3.5-2H12.2c-1.4,0-2.7,0.7-3.5,2
		C8,2.2,8,3.7,8.7,5l11.6,20.8C21,27,22.3,27.8,23.8,27.8 M19.4,26.2L7.8,5.4C5.9,2.1,8.3-2,12.2-2h23.2c3.8,0,6.2,4.1,4.4,7.4
		L28.1,26.2c-1,1.7-2.7,2.6-4.4,2.6S20.4,27.9,19.4,26.2z"/>
</g>
<path id="다각형_2" class="st2" d="M10.5,32.3C9.7,32.7,8.9,33,8,33c-2.8,0-5-2.2-5-5V5c0-0.9,0.2-1.7,0.7-2.5
	C5,0.1,8.1-0.7,10.5,0.7l20,11.5c0.8,0.4,1.4,1.1,1.8,1.8c1.4,2.4,0.6,5.5-1.8,6.8L10.5,32.3z"/>
</svg>
