<?xml version="1.0" encoding="utf-8"?>
<!-- Generator: Adobe Illustrator 25.2.1, SVG Export Plug-In . SVG Version: 6.00 Build 0)  -->
<svg version="1.1" id="레이어_1" xmlns="http://www.w3.org/2000/svg" xmlns:xlink="http://www.w3.org/1999/xlink" x="0px"
	 y="0px" viewBox="0 0 33 39.1" style="enable-background:new 0 0 33 39.1;" xml:space="preserve">
<style type="text/css">
	.st0{fill:#FFFFFF;}
	.st1{fill:none;}
	.st2{fill:#B90019;}
</style>
<g id="다각형_1_1_" transform="translate(2 46.261) rotate(-90)">
	<path class="st0" d="M19.4,2.8c1.3-2.4,4.4-3.3,6.8-1.9C27,1.3,27.7,2,28.1,2.8l11.6,20.8c1.3,2.4,0.5,5.5-1.9,6.8
		c-0.7,0.4-1.6,0.6-2.4,0.6H12.2c-2.8,0-5-2.2-5-5c0-0.9,0.2-1.7,0.6-2.4L19.4,2.8z"/>
	<path class="st0" d="M23.8,1.2c-1.5,0-2.8,0.8-3.5,2L8.7,24c-0.7,1.3-0.7,2.7,0,4c0.7,1.2,2,2,3.5,2h23.2c1.4,0,2.7-0.7,3.5-2
		c0.7-1.2,0.7-2.7,0-4L27.3,3.3C26.5,2,25.2,1.2,23.8,1.2 M23.8,0.2c1.7,0,3.4,0.9,4.4,2.6l11.6,20.8c1.9,3.3-0.5,7.4-4.4,7.4H12.2
		c-3.8,0-6.2-4.1-4.4-7.4L19.4,2.8C20.4,1.1,22.1,0.2,23.8,0.2z"/>
</g>
<g id="다각형_1" transform="translate(2 46.261) rotate(-90)">
	<path class="st1" d="M19.4,2.8c1.3-2.4,4.4-3.3,6.8-1.9C27,1.3,27.7,2,28.1,2.8l11.6,20.8c1.3,2.4,0.5,5.5-1.9,6.8
		c-0.7,0.4-1.6,0.6-2.4,0.6H12.2c-2.8,0-5-2.2-5-5c0-0.9,0.2-1.7,0.6-2.4L19.4,2.8z"/>
	<path class="st2" d="M23.8,1.2c-1.5,0-2.8,0.8-3.5,2L8.7,24c-0.7,1.3-0.7,2.7,0,4c0.7,1.2,2,2,3.5,2h23.2c1.4,0,2.7-0.7,3.5-2
		c0.7-1.2,0.7-2.7,0-4L27.3,3.3C26.5,2,25.2,1.2,23.8,1.2 M23.8,0.2c1.7,0,3.4,0.9,4.4,2.6l11.6,20.8c1.9,3.3-0.5,7.4-4.4,7.4H12.2
		c-3.8,0-6.2-4.1-4.4-7.4L19.4,2.8C20.4,1.1,22.1,0.2,23.8,0.2z"/>
</g>
<path id="다각형_2" class="st2" d="M2.5,20.8c-2.4-1.4-3.2-4.4-1.8-6.8c0.4-0.8,1.1-1.4,1.8-1.8l20-11.5c2.4-1.4,5.5-0.6,6.8,1.8
	C29.7,3.3,30,4.1,30,5v23c0,2.8-2.2,5-5,5c-0.9,0-1.7-0.2-2.5-0.7L2.5,20.8z"/>
</svg>
