<?xml version="1.0" encoding="utf-8"?>
<!-- Generator: Adobe Illustrator 25.2.1, SVG Export Plug-In . SVG Version: 6.00 Build 0)  -->
<svg version="1.1" id="레이어_3" xmlns="http://www.w3.org/2000/svg" xmlns:xlink="http://www.w3.org/1999/xlink" x="0px"
	 y="0px" viewBox="0 0 627.6 409.2" style="enable-background:new 0 0 627.6 409.2;" xml:space="preserve">
<style type="text/css">
	.st0{fill:none;stroke:#ffffff;stroke-width:8;stroke-linecap:round;stroke-linejoin:round;stroke-miterlimit:10;}
	.st1{fill:none;stroke:#ffffff;stroke-width:5;stroke-linecap:round;stroke-miterlimit:10;}
	.st2{fill:none;stroke:#ffffff;stroke-width:8;stroke-linecap:round;stroke-miterlimit:10;}
</style>
<path class="st0" d="M10,123c0,0,168.1-146.8,300.9-105.7c26.8,8.3,45.7,32.5,46.6,60.5c0.9,29.5-14,72.5-70.4,131.8
	c0,0-66.5,73.2-174.2,117.1c0,0-52.5,22.3,0.7-13.7S227,278.2,227,278.2s47.7-3.4-3.1,42.5c0,0,81.9-69.1,121.7-56.4
	c0,0,15.6,6.8-5.6,35.2c0,0-3.8,9.7,10.4,10.1c14.2,0.4,34.6-11.4,57.4-38.3c0,0,1.9,55.8-43.9,108.8c-0.3,0.4-5.6,6.9-10.4,10.8
	c-2.6,2.2-12.2,10.8-19.6,8.3c0,0-7.8-3.3,6.1-20.4c0,0,22.8-32.7,62.7-60.1c40.3-27.7,53-36.5,60.6-47.3c0,0,1.5-1.6,1.5-3.7
	c0.1-2.3-1.9-4-4.2-4c-4.2,0-13.7,2.7-30.5,20.9c-24,26.1,11.2,22.1,11.2,22.1s12.2,1.7,54.8-12.2c42.7-13.9,69.1-11.2,74.5-10.4
	c3.1,0.4,4.7,0.9,7.2,2.2c3.4,1.7,6.2,4.1,6.1,7.9c0,5-3.2,8.1-11.7,14.1"/>
<path class="st1" d="M35.5,40.5"/>
<circle class="st2" cx="616.3" cy="311" r="1.3"/>
</svg>
