<?xml version="1.0" encoding="utf-8"?>
<!-- Generator: Adobe Illustrator 25.2.1, SVG Export Plug-In . SVG Version: 6.00 Build 0)  -->
<svg version="1.1" id="레이어_1" xmlns="http://www.w3.org/2000/svg" xmlns:xlink="http://www.w3.org/1999/xlink" x="0px"
	 y="0px" viewBox="0 0 838 650" style="enable-background:new 0 0 838 650;" xml:space="preserve">
<style type="text/css">
	.st0{fill:#F2F2F2;}
	.st1{fill:#2F2E41;}
	.st2{fill:#E6E6E6;}
	.st3{fill:#A0616A;}
	.st4{fill:#FFB6B6;}
	.st5{fill:#0052A4;}
</style>
<path class="st0" d="M508.1,204.7c2.8,0.1,5.2-2,5.3-4.9c0.1-1.5-0.5-3-1.6-4c-0.1-0.5-0.2-0.9-0.3-1.4c0-0.1,0.1-0.2,0.1-0.3
	c4.7-11.2,20.6-11.1,25.2,0.1c4.1,9.9,9.4,19.9,10.7,30.4c0.6,4.6,0.3,9.3-0.7,13.9c9.7-21.1,14.7-44.1,14.7-67.3
	c0-5.8-0.3-11.7-1-17.5c-0.5-4.8-1.3-9.5-2.2-14.2c-5.2-25.4-16.3-49.2-32.5-69.5c-7.8-4.3-14.2-10.8-18.2-18.8
	c-1.4-2.9-2.5-5.9-3-9.1c0.9,0.1,3.3-13.3,2.7-14.2c1.2-1.9,3.4-2.8,4.8-4.6c6.7-9.1,15.9-7.5,20.7,4.8c10.3,5.2,10.4,13.8,4.1,22.1
	c-4,5.3-4.6,12.4-8.1,18c0.4,0.5,0.7,0.9,1.1,1.4c6.6,8.5,12.4,17.7,17.2,27.3c-1.4-10.7,0.7-23.6,4.1-31.9
	c3.9-9.5,11.3-17.4,17.7-25.6c7.8-9.8,23.7-5.5,25.1,6.9c0,0.1,0,0.2,0,0.4c-1,0.5-1.9,1.1-2.8,1.7c-3.2,2.1-4,6.4-1.9,9.6
	c1.1,1.6,2.8,2.7,4.7,3l0.1,0c-0.3,3.5-0.9,6.9-1.8,10.3c8.3,32.1-9.6,43.8-35.2,44.3c-0.6,0.3-1.1,0.6-1.7,0.9
	c4.9,13.8,7.9,28.1,9.1,42.7c0.7,8.6,0.6,17.2-0.1,25.8l0-0.3c1.9-9.5,6.9-18.2,14.4-24.4c11.1-9.1,26.8-12.5,38.7-19.8
	c5.8-3.5,13.1,1,12.1,7.7c0,0.1,0,0.2,0,0.3c-1.8,0.7-3.5,1.6-5.2,2.5c-1,0.5-1.9,1.1-2.8,1.7c-3.2,2.1-4,6.4-1.9,9.6
	c1.1,1.6,2.8,2.7,4.7,3l0.1,0c0.1,0,0.2,0,0.3,0c-3,7.3-7.3,14-12.6,19.8c-5.2,28-27.5,30.7-51.3,22.5h0c-2.6,11.4-6.4,22.4-11.3,33
	h-40.4c-0.1-0.4-0.3-0.9-0.4-1.4c3.7,0.2,7.5,0,11.2-0.7c-3-3.7-6-7.4-9-11.1c-0.1-0.1-0.1-0.1-0.2-0.2c-1.5-1.9-3.1-3.8-4.6-5.6
	l0,0C506.1,216,506.7,210.3,508.1,204.7L508.1,204.7z"/>
<path class="st1" d="M637.9,101.2c-7.5-27.4,53.1-50.9,69-28.8c2.2-3.1,10.4-5,14.1-4.1c3.8,1,6.9,3.4,10,5.7
	c4.2,3.3,8.6,6.6,11.2,11.3c2.6,4.7,3,11-0.5,15.1c-2.8,3.2-11,5.3-15.2,6.1c-2.9,0.6-5.4,1.1-7.5,1.4c-1.9-2.8-2.8-6.1-2.5-9.5
	c-2.9,1.9-4.7,5.1-5.1,8.5c-0.1,0.7,23.7,88,23.7,88c-2.8,1.6-5.8,3-8.9,4c-6.1-9.4-10.8-19.6-14-30.4c-0.7,7.2-0.6,14.5,0.3,21.7
	c0.5,4,1.2,8,2,12c-28.2,6.1-70.6,4.1-89-21.8c0-0.1,0-0.2,0-0.3c0-2.4-2-4.4-4.5-4.3c-1.8,0-3.4,1.1-4,2.8
	c-0.4,1.1-0.9,2.1-1.2,2.9C610.4,162.3,617.4,140,637.9,101.2z"/>
<path class="st1" d="M590,560.6v0.9C589.9,561.2,589.9,560.9,590,560.6z"/>
<path class="st1" d="M617.6,405.5c0.7-0.2,1.4-0.3,2.2-0.4C618.9,405.3,618.2,405.4,617.6,405.5z"/>
<path class="st1" d="M616.9,405.7c0.2-0.1,0.4-0.1,0.6-0.2C617.3,405.6,617.1,405.6,616.9,405.7z"/>
<path class="st1" d="M820.8,650.4H717.5c-3-2.4-4-6.6-2.2-10.1c2.8-6.5-2.7-12.4-2.7-12.4c-3.8-4.5-5.1-10.5-3.5-16.2
	c2.7-9.6-8-36.5-8-36.5s-5.8,34.8-12.9,75.2H590c-3.4-5.7-3.4-12.8,0-18.5c5.7-9.7,0-11.6,0-11.6s-5.7-10.9,0-18.7
	c5.7-7.9,0-40.1,0-40.1c0.2,1.4,1.8-1.2,4.4-6.6c3.8-8.3,9.7-23.1,15.6-40.3c4.2-12.3,8.5-25.8,12-39.1h0c0.9-3.5,1.8-6.9,2.6-10.3
	c1.6-6.7,3-13.2,4.1-19.3c2.3-13.2,3.1-24.5,1.3-31.8c-1.5-6.1-4.7-9.5-10.2-8.9c3-0.5,7.3-1,12.7-1.4c1-0.1,2-0.2,3-0.2
	c40-3,125.7-4.8,125.7-4.8l26.3,47l33.3,59.6C820.7,505.3,819.8,585.3,820.8,650.4z"/>
<path class="st2" d="M710.5,195.4L650,182.6l-12,24.2l-40.5,23.4c0,0,26.1,106.6,25.9,121.6c-0.4,38.1-61.3,123.4-15.3,116.9
	c46-6.6,55.4-34.1,70.1-29.7c13.3,3.9,29.6,21.4,40.5,8.9c10.9-12.5,14.7,1.9,21.6,2.4c3.3,0.2,1.3-15.8,9.5,0.5
	c8.2,16.3,51.9-5.6,37.1-20.4C762.4,405.7,757.4,224,757.4,224l-27.4-8.4L710.5,195.4z"/>
<path class="st3" d="M596.4,582.7c5.1-6,4.4-15-1.5-20.2c-0.6-0.5-1.2-1-1.9-1.4l10.1-49.7l-23.4-14l-6.5,69.5
	c-3,5.9-1.6,13,3.3,17.4c5.8,5,14.5,4.4,19.6-1.4l0,0C596.2,582.9,596.3,582.8,596.4,582.7z"/>
<path class="st2" d="M669,321c-0.1-1.6-2.2-2.3-5-3.3c-2.8-0.9-5.5-2.1-8-3.8c-6.2-4.5-3.8-9.2-0.4-15.8c0.7-1.3,1.4-2.6,2-4
	c1.9-4.1-1.1-20.8-9.1-49.8c-2.5-8.9-2.5-15.2-4.2-19.4c-1.7-4.2-5.1-6.2-14.3-6.7c-11.2-0.6-22.1,3.3-30.4,10.8
	c-0.2,0.2-0.5,0.4-0.7,0.6c-0.4,0.4-0.8,0.8-1.2,1.2c-7.7,7.7-12.1,18.1-12.3,29l0,1.9l-1.9,88.6l-5.4,77.8l-7.4,107.1l5.5,0.3
	l21.8,1.1l2.6,0.1l6.3-26.4l7.6-31.7l2.8-11.6l8.6-36.1l4-16.9l2.5-10.3l1-4.2l4.9-20.5c0.1-0.4,11.3-44.8,24.3-52.2
	C667.4,324.1,669.2,322.5,669,321z"/>
<path class="st3" d="M814.4,582.2c-5.7-5.5-6-14.4-0.7-20.2c0.5-0.6,1.1-1.1,1.7-1.5L800,512.1l21.8-16.4l13.9,68.4
	c3.6,5.5,3,12.8-1.5,17.6c-5.2,5.6-14,5.9-19.6,0.7l0,0C814.5,582.3,814.4,582.3,814.4,582.2z"/>
<path class="st2" d="M825,477.4c0,0-17-59.7-11.8-66.1c5.2-6.5-10.1-7.7-3.5-19.8c6.6-12-2.5-14-2.5-14l-4.9-27.7l-8.8-68l-0.3-2
	l-2.6-19.8c-1.4-11.4-7.5-21.7-16.7-28.6c-0.2-0.2-0.5-0.3-0.7-0.5c-1.1-0.8-2.2-1.5-3.3-2.2c-8.5-5-18.4-6.9-28.1-5.3
	c-18.3,2.8-12.6,9.7-15.6,27.9c-4.8,29.7-6.1,46.7-3.7,50.5c0.8,1.3,1.6,2.5,2.4,3.7c4.1,6.1,7,10.6,1.3,15.7
	c-2.3,1.9-4.8,3.4-7.5,4.6c-2.7,1.3-4.6,2.2-4.6,3.8c0,1.6,1.9,3,7,5.2c6.2,2.7,12.8,12.9,18.2,23.4c4.3,8.4,8.2,17.1,11.5,25.9
	l46.7,131.4l7.6,21.4l2.6-0.4l21.6-3.4l5.4-0.9L825,477.4z"/>
<circle class="st3" cx="685" cy="132.3" r="49.4"/>
<path class="st1" d="M611,105.1c-7.5-27.4,53.1-50.9,69-28.8c2.2-3.1,10.4-5,14.1-4.1c3.8,1,6.9,3.4,10,5.7
	c4.2,3.3,8.6,6.6,11.2,11.3c2.6,4.7,3,11-0.5,15.1c-2.8,3.2-11,5.3-15.2,6.1c-2.9,0.6-5.4,1.1-7.5,1.4c-1.9-2.8-2.8-6.1-2.5-9.5
	c-2.9,1.9-4.7,5.1-5.1,8.5c-0.1,0.7,23.7,88,23.7,88c-2.8,1.6-5.8,3-8.9,4c-6.1-9.4-10.8-19.6-14-30.4c-0.7,7.2-0.6,14.5,0.3,21.7
	c0.5,4,1.2,8,2,12c-28.2,6.1-70.6,4.1-89-21.8c0-0.1,0-0.2,0-0.3c0-2.4-2-4.4-4.5-4.3c-1.8,0-3.4,1.1-4,2.8
	c-0.4,1.1-0.9,2.1-1.2,2.9C583.5,166.1,590.4,143.9,611,105.1z"/>
<path class="st1" d="M629.4,79.3"/>
<path class="st0" d="M366.1,275.7c-2.8,0.1-5.2-2-5.3-4.9c-0.1-1.5,0.5-3,1.6-4c0.1-0.5,0.2-0.9,0.3-1.4c0-0.1-0.1-0.2-0.1-0.3
	c-4.7-11.2-20.6-11.1-25.2,0.1c-4.1,9.9-9.4,19.9-10.7,30.4c-0.6,4.6-0.3,9.3,0.7,13.9c-9.7-21.1-14.7-44.1-14.7-67.3
	c0-5.8,0.3-11.7,1-17.5c0.5-4.8,1.3-9.5,2.2-14.2c5.2-25.4,16.3-49.2,32.5-69.5c7.8-4.3,14.2-10.8,18.2-18.8c1.4-2.9,2.5-5.9,3-9.1
	c-0.9,0.1-3.3-13.3-2.7-14.2c-1.2-1.9-3.4-2.8-4.8-4.6c-6.7-9.1-15.9-7.5-20.7,4.8c-10.3,5.2-10.4,13.8-4.1,22.1
	c4,5.3,4.6,12.4,8.1,18c-0.4,0.5-0.7,0.9-1.1,1.4c-6.6,8.5-12.4,17.7-17.2,27.3c1.4-10.7-0.7-23.6-4.1-31.9
	c-3.9-9.5-11.3-17.4-17.7-25.6c-7.8-9.8-23.7-5.5-25.1,6.9c0,0.1,0,0.2,0,0.4c1,0.5,1.9,1.1,2.8,1.7c3.2,2.1,4,6.4,1.9,9.6
	c-1.1,1.6-2.8,2.7-4.7,3l-0.1,0c0.3,3.5,0.9,6.9,1.8,10.3c-8.3,32.1,9.6,43.8,35.2,44.3c0.6,0.3,1.1,0.6,1.7,0.9
	c-4.9,13.8-7.9,28.1-9.1,42.7c-0.7,8.6-0.6,17.2,0.1,25.8l0-0.3c-1.9-9.5-6.9-18.2-14.4-24.4c-11.1-9.1-26.8-12.5-38.7-19.8
	c-5.8-3.5-13.1,1-12.1,7.7c0,0.1,0,0.2,0,0.3c1.8,0.7,3.5,1.6,5.2,2.5c1,0.5,1.9,1.1,2.8,1.7c3.2,2.1,4,6.4,1.9,9.6
	c-1.1,1.6-2.8,2.7-4.7,3l-0.1,0c-0.1,0-0.2,0-0.3,0c3,7.3,7.3,14,12.6,19.8c5.2,28,27.5,30.7,51.3,22.5h0c2.6,11.4,6.4,22.4,11.3,33
	h40.4c0.1-0.4,0.3-0.9,0.4-1.4c-3.7,0.2-7.5,0-11.2-0.7c3-3.7,6-7.4,9-11.1c0.1-0.1,0.1-0.1,0.2-0.2c1.5-1.9,3.1-3.8,4.6-5.6l0,0
	C368.2,287,367.5,281.3,366.1,275.7L366.1,275.7z"/>
<path class="st1" d="M177.5,72.4c-0.9,2.1-29.2,1.9-30.5,3.8c-10,14.7,26,77.2,16,91.9l-1.4,1.7c3.3-1.5,6.4-3.3,9.4-5.3
	c0.3-6,0.5-12.1,0.8-18.1c3,3.8,5.4,8.1,7.2,12.6c2.3-1.6,4.2-4.7,14.2-10.7c4-4.4,8.7-8.3,13.8-11.4L177.5,72.4z"/>
<path class="st4" d="M198.1,192.8c-10.8-7.1-25.4-4-32.4,6.8c-1.4,2.2-2.4,4.5-3.1,7l-43,112l-73.9-41.9
	c-0.8-12.6-11.8-22.1-24.4-21.3C8.7,256.3-0.8,267.2,0,279.8c0.8,12.6,11.8,22.1,24.4,21.3c2.4-0.2,4.8-0.7,7-1.6
	c15.6,16.6,83,84.7,110.9,58.1c23.5-22.4,57.4-109,65.5-139C210.6,208.8,206.6,198.4,198.1,192.8z"/>
<polygon class="st4" points="117.3,362.3 130.9,423.6 230.1,432.6 239.2,379.2 "/>
<path class="st1" d="M268.9,519.5c0,0.9-0.1,1.7-0.2,2.6c-1,12.7-2,27.4-3.2,43.4c-1.9,25.5-3.9,54.5-6,84.8H51.4l40.3-121.3
	c0,0,16.3-9,8-24c-8.3-15.1,8-3.1,8.2-24.6s14.8-44.4,14.8-44.4l2.4-32.6l1.4,0l108.3,1.8l2,0l3.3,28
	C260.2,457.4,270.5,488.2,268.9,519.5z"/>
<path class="st5" d="M179.3,163.1l49.4-2.5l22.9,36.2c0,0,43.1,7.2,40.2,58.1s-52.5,95.5-52.5,95.5l2.1-7.3l-3.7,10.5l0.5,5.9l5,6.2
	l0.5,6.5l-4.4,10.2l0,0c1.7,2.7,0.9,6.3-1.9,8c-1.1,0.7-2.4,1-3.7,0.9l-71.3-7.1c-1.6-4.5-2.9-9.8-9.4-0.9l-6.7-0.7l-27.9-2.7
	l-1.6-6c-1.9-6.9-0.5-14.3,3.8-20l0,0c-2.4-7.6-1.8-15.8,1.8-23l0.1-0.3l3-2.5c0,0-32.5-48.8,4.8-85.5l15-25.4l16.7-20.4
	L179.3,163.1z"/>
<circle class="st4" cx="191.5" cy="94.9" r="46.8"/>
<path class="st1" d="M227.1,162.4c-3.8-3.2-6.5-7.5-7.5-12.4c-0.9,5.9-0.6,11.9,0.7,17.7c-2.5,1.9-5,3.7-7.3,5.4
	c-1.8-4.5-4.2-8.8-7.2-12.6c-0.3,6-0.6,12.1-0.8,18.1c-3,2-6.1,3.8-9.4,5.3l1.4-1.7c10-14.7-15.9-41.8-5.9-56.5
	c2.8-4.1-9.9-36.7-19.5-38.1c-8.6-1.3-8.2,1.2-16.5,3c-0.9-3.6-2.2-7.1-4-10.3c0.5,3.6,0.4,7.3-0.3,10.9c-3,0.1-5.3-1.8-8.4-2.2
	c-20.1-3.1-18-24.8-12.4-31.7c5.6-6.9,24.2-8.9,32.8-11.2c0.8-0.8,2.6-0.3,3.3-1c16.4-15,38.4-17.5,58.2-10.9
	c21.1,7.1,34.3,20.9,41,42.1l1.9,17c1.7,5.5-0.4,30.9-1.9,36.4C259.4,151.1,247.1,140.3,227.1,162.4z"/>
<path class="st4" d="M295.4,384.2l-1.8-143.6c-0.2-12.7-10.5-22.8-23.2-22.8h0c-12.8,0-23.2,10.4-23.2,23.2c0,0.4,0,0.8,0,1.2
	l6.5,149.1l0.1,90.7c-10.3,4.4-15.1,16.2-10.7,26.5c4.4,10.3,16.2,15.1,26.5,10.7c10.3-4.4,15.1-16.2,10.7-26.5
	c-0.5-1.1-1-2.2-1.7-3.2L295.4,384.2z"/>
<path class="st1" d="M537,569.9c0,0-2.8,51.3-4.2,80.5h-98.1c-2-26.6-2.7-46.2-2.7-46.2l-5.4,46.2h-99.2l-6.1-85.5l29.7-73.7
	c0,0,161.1-11.2,176,3C541.9,508.4,537,569.9,537,569.9z"/>
<circle class="st4" cx="450.2" cy="85" r="53.6"/>
<path class="st1" d="M512.7,67.6c-5.5,2.5-9.1,20.7-13.4,16.5c-4.3-4.2-4-9.7-9.9-11.3c-4.7-1.3-9.8,0.2-14.1,2.5
	c-0.8,0.4-1.5,0.8-2.2,1.3c-0.5-0.3-1-0.6-1.5-0.9c-3.8-2.1-8.3-2.6-12.5-1.4c3.3,1.1,6.2,3.2,8.3,6.1c-1.4,1-2.9,1.9-4.4,2.8
	c-12.5,7.2-30.2-8.4-43.3-14.3c8.2,15.4,4.2,21.8-3,37.7l-0.2,0.9c0.4-4-12-7-11.2-1.3c0.5,4,4,12.9,5.9,16.4
	C397.4,106.5,388,87,390,66.9c0.4-4.2,0.3-8.7,2.5-12.3c2.2-3.6,6.7-6.2,10.8-4.8c-1-19.6,14-36.3,33.6-37.4
	c7-0.4,13.9,1.3,19.9,4.9c5.1,3,9.4,7.3,14.2,11c4.7,3.7,10.2,6.9,16.1,7.2c3.8,0.2,7.9-0.7,11.2,1.2c3.8,2.3,4.4,7.1,5,11.6
	c-3.4,0.3-6.6,1.7-9.2,3.8c3.5-0.4,7,0.4,10,2.1c0.1,0,0.1,0.1,0.2,0.1C506.2,61.9,506,63.6,512.7,67.6z"/>
<path class="st5" d="M327.7,517.2c45.7-53.4,30.2-121.4,12.1-190l3.4-101.4c0.3-10.1,5.6-19.4,14-24.9l46.6-30.4l18.1-26.2l50,5
	l27.7,29.3l30.7,23.4c15.7,12,23.1,32.1,18.8,51.4l-29.4,132.8c0,0,12.3,68.9,4.8,76.5c-7.5,7.6-26.8,0-11.5,8.5
	c18.4,10.2,35.1,8.4,25.8,17.7c-9.3,9.3,2.5,22.2,2.5,22.2L327.7,517.2z"/>
<path class="st4" d="M347.2,594.8l7.6-54.2l-30.4-8.7l-6,57.6c-7.5,6.8-8,18.4-1.1,25.9c6.8,7.5,18.4,8,25.9,1.1
	C349.2,611,350.9,602.2,347.2,594.8L347.2,594.8z"/>
<path class="st5" d="M405,180.3c0,0-86.4,28.1-88.5,48.7s-1.4,33.2-10.5,115.6l0.5,221.9c0,0,58,12.4,52-0.9
	c-5.9-13.3-3.9-19.5-3.9-19.5s12.4-4.9,9.3-20.5c-3.1-15.6,12.5-92.8,12.5-92.8l9.8-138.4L405,180.3z"/>
<path class="st4" d="M511.6,592l-4.1-54.6l30.9-6.7l2.2,57.9c7,7.3,6.7,18.9-0.6,25.9c-7.3,7-18.9,6.7-25.9-0.6
	C508.5,608,507.4,599,511.6,592z"/>
<path class="st5" d="M481,174.5c0,0,84.4,33.7,85.1,54.4c0.7,20.7-0.8,33.2,2.9,116l-15,221.4c0,0-58.6,8.6-51.8-4.3
	c6.8-12.8,5.1-19.2,5.1-19.2s-12.1-5.7-8-21c4.1-15.3-6.4-93.4-6.4-93.4l-0.8-138.8L481,174.5z"/>
</svg>
