<?xml version="1.0" encoding="utf-8"?>
<!-- Generator: Adobe Illustrator 25.2.1, SVG Export Plug-In . SVG Version: 6.00 Build 0)  -->
<svg version="1.1" id="레이어_1" xmlns="http://www.w3.org/2000/svg" xmlns:xlink="http://www.w3.org/1999/xlink" x="0px"
	 y="0px" viewBox="0 0 838 650" style="enable-background:new 0 0 838 650;" xml:space="preserve">
<style type="text/css">
	.st0{fill:#F0F0F0;}
	.st1{fill:#FFFFFF;}
	.st2{fill:#E5E5E5;}
	.st3{fill:#E6E6E6;}
	.st4{fill:#F2F2F2;}
	.st5{fill:#3F3D56;}
	.st6{fill:#FFB6B6;}
	.st7{fill:#2F2E41;}
	.st8{fill:#0052A4;}
	.st9{fill:#CACACA;}
</style>
<path id="e7a552b9-89f6-403f-a662-c184ed590622-461" class="st0" d="M789.2,591.8c-0.5,19-3.7,37.8-9.4,55.8
	c-0.1,0.4-0.3,0.8-0.4,1.3h-35.2c0-0.4,0.1-0.8,0.1-1.3c2.3-27-11.1-189.3-27.2-217.4C718.6,432.6,792.1,506.1,789.2,591.8z"/>
<path id="b08f6207-3c71-42fa-8723-265175c281aa-462" class="st0" d="M786.7,647.6c-0.3,0.4-0.6,0.8-0.9,1.3h-26.4
	c0.2-0.4,0.4-0.8,0.7-1.3c4.4-7.9,17.3-31.4,29.3-55.8c12.9-26.2,24.7-53.5,23.7-63.3C813.2,530.7,822.2,598.5,786.7,647.6z"/>
<path class="st1" d="M665.2,532.9H0.6V21.2h664.6V532.9z"/>
<path class="st2" d="M665.2,532.9H0.6V21.2h664.6V532.9z M10.4,523.1h645v-492h-645V523.1z"/>
<path class="st3" d="M174.5,406.9h-50.3c-2.8,0-5.1-2.3-5.1-5.1v-69.4c0-2.8,2.3-5.1,5.1-5.1h50.3c2.8,0,5.1,2.3,5.1,5.1v69.4
	C179.8,404.6,177.4,406.9,174.5,406.9z"/>
<path class="st3" d="M266.4,406.9h-50.3c-2.8,0-5.1-2.3-5.1-5.1V266.6c0-2.8,2.3-5.1,5.1-5.1h50.3c2.8,0,5.1,2.3,5.1,5.1v135.2
	C271.5,404.6,269.2,406.9,266.4,406.9z"/>
<path class="st3" d="M358.1,406.9h-50.3c-2.8,0-5.1-2.3-5.1-5.1v-69.4c0-2.8,2.3-5.1,5.1-5.1h50.3c2.8,0,5.1,2.3,5.1,5.1v69.4
	C363.2,404.6,360.9,406.9,358.1,406.9z"/>
<path class="st3" d="M449.9,406.9h-50.3c-2.8,0.1-5.1-2.1-5.1-4.9V240.4c0.1-2.8,2.4-5,5.1-4.9h50.3c2.8-0.1,5.1,2.1,5.1,4.9V402
	C454.9,404.8,452.6,407,449.9,406.9z"/>
<path class="st4" d="M541.7,406.9h-50.3c-2.8,0-5.1-2.3-5.1-5.1V193.9c0-2.8,2.3-5.1,5.1-5.1h50.3c2.8,0,5.1,2.3,5.1,5.1v207.9
	C546.8,404.6,544.6,406.9,541.7,406.9z"/>
<circle class="st5" cx="149.4" cy="296.1" r="10.4"/>
<circle class="st5" cx="241.2" cy="228.6" r="10.4"/>
<circle class="st5" cx="332.9" cy="296.1" r="10.4"/>
<circle class="st5" cx="424.8" cy="195.7" r="10.4"/>
<ellipse transform="matrix(0.1602 -0.9871 0.9871 0.1602 278.243 642.2354)" class="st5" cx="516.6" cy="157.6" rx="10.4" ry="10.4"/>
<polygon class="st5" points="333.1,298.4 241.2,229.5 150.4,297.5 148.3,294.7 241.2,225.2 332.8,293.8 423.8,194.2 424,194.1 
	515.8,157.1 517.2,160.3 425.8,197.1 "/>
<polygon class="st6" points="644.8,633.2 629.2,633.2 621.8,572.9 644.8,572.9 "/>
<path class="st7" d="M648.8,648.4h-50.4v-0.6c0-10.8,8.8-19.6,19.6-19.6l0,0h30.8V648.4z"/>
<path class="st7" d="M589.1,378l8.9,141.4l29.8,99.5l23.1,1.7l-11.6-121.3l5.1-80.6c0,0,24.1-18,10.8-39.6L589.1,378z"/>
<polygon class="st6" points="655.1,633.2 639.4,633.2 632.1,572.9 655.1,572.9 "/>
<path class="st7" d="M659.1,648.4h-50.4v-0.6c0-10.8,8.8-19.6,19.6-19.6l0,0H659L659.1,648.4z"/>
<path class="st7" d="M599.2,378l8.9,141.4l29.8,99.5l23.1,1.7l-11.6-121.3l5.1-80.6c0,0,24.1-18,10.8-39.6L599.2,378z"/>
<path class="st5" d="M647.3,399.9c-26.6,0-57.9-16.3-59.8-17.2l-0.5-0.3l61.1-155.9l30.3-14.3c7.2-3.4,15.9-0.3,19.3,6.9
	c1.1,2.4,1.6,5.1,1.3,7.8l-12,107.7l-12.5,55.8l-0.1,0.1C667.3,397.4,657.8,399.9,647.3,399.9z"/>
<path class="st6" d="M549.7,296.7c6-3.8,13.9-2,17.7,4c0.4,0.6,0.8,1.3,1,2l45.5-2.5l-11.9,20.4l-41.4-0.8
	c-6.8,2.3-14.1-1.4-16.3-8.1C542.4,306.1,544.7,299.9,549.7,296.7L549.7,296.7z"/>
<path class="st5" d="M639.4,328.8l-45.6-1.2l0.6-30.2l21.6-6.9l35.4-49.6c7.3-10.3,21.6-12.6,31.8-5.3c10.3,7.3,12.6,21.6,5.3,31.8
	c-0.2,0.3-0.5,0.7-0.8,1L639.4,328.8z"/>
<circle class="st6" cx="665.8" cy="176.2" r="30.3"/>
<path class="st7" d="M627.6,151c3.1-3.1,7-5.2,11.3-6c4.2-0.9,8.8-1.2,12.2-3.8c3.8-3,5.5-8.8,10.2-10.1c2-0.4,4.2-0.2,6.1,0.5
	c7.5,2.3,14.2,6.7,19.1,12.7c1.2,1.7,2.7,3.2,4.4,4.4c1,0.4,2,0.9,3,1.5c1.1,0.9,1.9,2,2.5,3.2c3.4,6.8,4.2,14.7,2.2,22
	c-1.2,4.3-3.3,8.4-4.5,12.7c-1.2,4.4-7,12.7-8.4,10.6s-3.1-4-3.8-6.4c-1.4-4.7-0.1-9.4-3.8-12.7c-2.3-2-6.4-3.4-7.9-0.8
	c-0.6,1-0.6,2.3-1.1,3.3c-1,2-4,2.4-6,1.3c-1.9-1.3-3.2-3.3-3.7-5.6c-3-10-8-16.4-18.8-12.1c-4,1.6-8.7,2.7-12.6-0.1
	C622.8,162.3,623.9,155.1,627.6,151z"/>
<path class="st8" d="M559.6,423.5h-50.3c-2.8,0-5.1-2.3-5.1-5.1V210.5c0-2.8,2.3-5.1,5.1-5.1h50.3c2.8,0,5.1,2.3,5.1,5.1v207.9
	C564.7,421.2,562.3,423.5,559.6,423.5z"/>
<path class="st6" d="M548.4,314.6c6-3.8,13.9-2,17.7,4c0.4,0.6,0.8,1.3,1,2l45.5-2.5l-11.9,20.4l-41.4-0.8
	c-6.8,2.3-14.1-1.4-16.3-8.1C541.2,324,543.3,317.8,548.4,314.6L548.4,314.6z"/>
<path class="st5" d="M638.2,346.6l-45.6-1.2l0.6-30.2l21.6-6.9l35.4-49.6c7.3-10.3,21.6-12.6,31.8-5.3c10.2,7.3,12.6,21.6,5.3,31.8
	c-0.2,0.3-0.5,0.7-0.8,1L638.2,346.6z"/>
<path class="st9" d="M837.3,650.2H351.6c-0.7,0-1.3-0.6-1.3-1.3s0.6-1.3,1.3-1.3l0,0h485.8c0.7,0,1.3,0.6,1.3,1.3
	C838.7,649.6,838.1,650.2,837.3,650.2L837.3,650.2z"/>
</svg>
