<?xml version="1.0" encoding="utf-8"?>
<!-- Generator: Adobe Illustrator 25.2.1, SVG Export Plug-In . SVG Version: 6.00 Build 0)  -->
<svg version="1.1" id="레이어_1" xmlns="http://www.w3.org/2000/svg" xmlns:xlink="http://www.w3.org/1999/xlink" x="0px"
	 y="0px" viewBox="0 0 838 650" style="enable-background:new 0 0 838 650;" xml:space="preserve">
<style type="text/css">
	.st0{fill:#E6E6E6;}
	.st1{fill:#3F3D56;}
	.st2{fill:#0052A4;}
	.st3{fill:#FFFFFF;}
	.st4{fill:#FFB8B8;}
	.st5{fill:#F2F2F2;}
	.st6{fill:#2F2E41;}
</style>
<ellipse class="st0" cx="477.2" cy="283.7" rx="34.1" ry="34.1"/>
<path class="st1" d="M560.8,327.6L525.1,292c11.3-17.5,6.2-40.9-11.4-52.2c-0.3-0.2-0.6-0.4-1-0.6c-16.9-10.1-38.8-5.6-50.2,10.4
	c-12.1,17-8.2,40.5,8.8,52.6c12.6,9,29.4,9.4,42.4,1l35.7,35.6c3.1,3.1,8.2,3.1,11.3,0C564,335.7,564,330.7,560.8,327.6z
	 M512.5,290.6c-10.6,10.5-27.7,10.5-38.2,0c-10.6-10.5-10.6-27.6,0-38.2c10.6-10.5,27.7-10.5,38.2,0c5.1,5.1,7.9,11.9,7.9,19.1
	C520.4,278.7,517.6,285.5,512.5,290.6z"/>
<path class="st0" d="M819.5,380.1c91.2,100.8-173.3,246-387,246s-361.6-112.5-387-246c-61.6-323.7,524.6-529.4,387-246
	C231.9,547.1,747.6,300.8,819.5,380.1z"/>
<path class="st1" d="M778.5,404c91.2,100.8-173.3,246-387,246S29.9,537.5,4.5,404C-57,80.3,529.2-125.4,391.5,157.9
	C190.9,571,706.7,324.6,778.5,404z"/>
<path class="st2" d="M127.6,167.7c-64-2.8-113.7-16.6-113-31.4c0.4-8.9,18.5-16,49.7-19.6c0.5-0.1,0.9,0.3,0.9,0.7
	c0.1,0.5-0.3,0.9-0.7,0.9l0,0c-29.4,3.4-47.9,10.2-48.2,17.9c-0.6,13.4,50.4,26.9,111.4,29.6c61,2.7,113-6.4,113.6-19.7
	c0.3-7.7-17.6-16.2-46.7-22.2c-0.5-0.1-0.8-0.5-0.7-1s0.5-0.8,1-0.7l0,0c31,6.3,48.5,15,48.1,23.9
	C242.3,161.1,191.6,170.5,127.6,167.7z"/>
<path class="st2" d="M70.7,170.2c16.9,32,56.6,44.4,88.7,27.5c10.1-5.3,18.6-13.2,24.8-22.8C146.3,175.4,108.4,173.8,70.7,170.2z"/>
<path class="st2" d="M191.3,156.9c11.5-34.4-7.1-71.5-41.5-83S78.2,81,66.7,115.4c-3.9,11.8-4.4,24.5-1.4,36.6
	C106.9,159.1,149.2,160.8,191.3,156.9z"/>
<ellipse class="st3" cx="144" cy="105.3" rx="7.7" ry="7.7"/>
<ellipse class="st3" cx="104.5" cy="130" rx="12.8" ry="12.8"/>
<ellipse class="st2" cx="297.6" cy="121.7" rx="8.5" ry="8.5"/>
<ellipse class="st0" cx="104.8" cy="385.8" rx="5.1" ry="5.1"/>
<ellipse class="st0" cx="463.1" cy="561.3" rx="5.1" ry="5.1"/>
<ellipse class="st0" cx="129.6" cy="289.6" rx="2.6" ry="2.6"/>
<ellipse class="st0" cx="341.1" cy="480.4" rx="2.6" ry="2.6"/>
<ellipse class="st0" cx="725.8" cy="455.7" rx="2.6" ry="2.6"/>
<ellipse class="st0" cx="605.5" cy="531.5" rx="2.6" ry="2.6"/>
<ellipse class="st0" cx="480.1" cy="439.5" rx="2.6" ry="2.6"/>
<ellipse class="st0" cx="318.1" cy="187.3" rx="2.6" ry="2.6"/>
<ellipse class="st0" cx="338.5" cy="61.3" rx="2.6" ry="2.6"/>
<ellipse class="st0" cx="326.6" cy="592" rx="2.6" ry="2.6"/>
<ellipse class="st0" cx="200.4" cy="538.3" rx="2.6" ry="2.6"/>
<ellipse class="st0" cx="600.4" cy="446.3" rx="2.6" ry="2.6"/>
<ellipse class="st3" cx="126.6" cy="191.5" rx="7.7" ry="7.7"/>
<path class="st3" d="M300.2,309.2c0,22.9-35.4,76.3-45.8,91.4c-1.1,1.6-3.2,1.9-4.7,0.9c-0.3-0.2-0.7-0.5-0.9-0.9
	c-10.4-15.1-45.8-68.5-45.8-91.4c0-26.8,21.8-48.6,48.6-48.6S300.2,282.3,300.2,309.2L300.2,309.2z"/>
<ellipse class="st2" cx="251.5" cy="305.7" rx="24.7" ry="24.7"/>
<ellipse class="st3" cx="251.1" cy="422.9" rx="28.6" ry="5.5"/>
<path class="st4" d="M696.7,270.8c-0.2,0.4-0.4,0.9-0.5,1.3l-40.8,11.3l-7.3-7.2l-12.3,9.7l11.8,14c2,2.3,5.2,3.1,8,1.8l44-19.4
	c4.1,2.8,9.6,1.8,12.5-2.2s1.8-9.6-2.2-12.4c-4.1-2.8-9.6-1.8-12.5,2.2C697.1,270.2,696.9,270.5,696.7,270.8L696.7,270.8z"/>
<path class="st2" d="M654,284.1L638.7,296c-1.7,1.3-4.1,1-5.4-0.7c-0.1-0.1-0.2-0.3-0.3-0.5l-9.5-16.8c-3.6-4.7-2.7-11.3,1.9-14.9
	c4.6-3.6,11.3-2.7,14.9,1.9l13.9,13.3c1.5,1.5,1.6,3.9,0.1,5.4C654.3,283.9,654.1,284,654,284.1L654,284.1z"/>
<path class="st1" d="M700.6,265.2l15.5,7c1.4,0.6,2,2.2,1.3,3.5l-1.8,4.1c0.4,0.2,0.7,0.7,0.4,1.2l-0.7,1.6
	c-0.2,0.4-0.7,0.6-1.2,0.4l-0.7,1.6c0.4,0.2,0.7,0.7,0.4,1.2l-0.7,1.6c-0.2,0.4-0.7,0.6-1.2,0.4l-9.9,22c-0.6,1.4-2.2,2-3.6,1.3
	l-15.5-7c-1.4-0.6-2-2.2-1.3-3.5l15.4-34.3C697.7,265.2,699.3,264.6,700.6,265.2z"/>
<path class="st5" d="M685.8,302.2l12.4,5.6c1.3,0.6,2.8,0,3.4-1.3l5.7-12.8l2-4.4l5.2-11.6c0.6-1.3,0-2.8-1.3-3.4l-3.9-1.8l-8.5-3.8
	c-1.3-0.6-2.8,0-3.4,1.3l-5,11.2l-5.7,12.7l-2.2,4.9C684,300.1,684.5,301.6,685.8,302.2z"/>
<polygon class="st4" points="659.8,460.4 670.3,460.4 675.2,420.1 659.8,420.1 "/>
<path class="st6" d="M657.2,457h20.6l0,0c7.2,0,13.1,5.9,13.1,13.1l0,0v0.4h-33.7L657.2,457z"/>
<polygon class="st4" points="687.1,457.8 697.6,457.8 702.5,417.6 687.1,417.6 "/>
<path class="st6" d="M684.4,454.4H705l0,0c7.2,0,13.1,5.9,13.1,13.1l0,0v0.4h-33.7L684.4,454.4z"/>
<path class="st6" d="M612.9,365.9c4.6,13.5,17.2,22.7,31.5,22.8h0.5c5.4,0.2,11.7-1.6,18-4.1c12.3-4.9,24.1-12.8,27.2-15l-5.3,50.9
	l-2.1,20.6c-0.2,2.1,1.3,4,3.4,4.2c0.1,0,0.3,0,0.4,0h13.2c1.7,0,3.3-1.2,3.7-2.9l21.9-83.2c2.3-8.7-2.9-17.5-11.6-19.8
	c-1.7-0.4-3.5-0.6-5.2-0.5l-45.4,3.1l3.2-12.7l-40.5-2.7l-0.1,0.1c-1,0.7-1.9,1.4-2.8,2.2c-2.3,1.9-4.3,4.1-6,6.5
	C610.6,344.5,609.2,355.8,612.9,365.9z"/>
<path class="st6" d="M612.9,365.9c4.6,13.5,17.2,22.7,31.5,22.8c6.7-3.4,13.1-7.2,19.3-11.4l-0.8,7.3l-6.7,64.2
	c-0.2,2.1,1.3,4,3.4,4.2c0.1,0,0.3,0,0.4,0h13.2c1.7,0,3.3-1.2,3.7-2.9l7.8-29.7l14.1-53.5c2.3-8.7-2.9-17.5-11.6-19.8
	c-1.7-0.4-3.5-0.6-5.2-0.5l-45.4,3.1l3.2-12.7l-23-1.5C610.6,344.5,609.2,355.8,612.9,365.9z"/>
<path class="st2" d="M622.7,332.1h-0.3l-7.1-34.7c-0.1-0.3-5.8-30.3,11.9-45.9l0.3-2.1c0.3-2.1,2.2-3.6,4.3-3.2
	c0.2,0,0.4,0.1,0.6,0.1l16.7,5.2c2,0.6,3.1,2.7,2.6,4.6l-1.6,6.2c2.3,2.6,28.8,34.5,19.5,59.1l-4.1,16.1L622.7,332.1z"/>
<path class="st4" d="M692,305c-0.4,0.3-0.8,0.5-1.1,0.8l-40.9-11l-2.7-9.9l-15.5,2.1l3,18c0.5,3,2.9,5.3,5.9,5.6l47.8,5.6
	c2.1,4.5,7.4,6.5,11.9,4.4s6.5-7.4,4.4-11.9s-7.4-6.5-11.9-4.4C692.7,304.6,692.3,304.8,692,305L692,305z"/>
<path class="st2" d="M648.5,294.7l-19.2,2.5c-2.1,0.3-4-1.2-4.3-3.3c0-0.2,0-0.4,0-0.6l0.4-19.3c-0.7-5.8,3.4-11.2,9.3-11.9
	c5.8-0.7,11.1,3.4,11.9,9.2l5.2,18.5c0.6,2-0.6,4.2-2.7,4.7C648.8,294.6,648.7,294.7,648.5,294.7z"/>
<ellipse class="st4" cx="643.1" cy="220.5" rx="20.9" ry="20.9"/>
<path class="st6" d="M641.9,222.2l-2.6-4.8c-5,20.2,3.8,36.9,3.8,36.9l-34-15.7l0.3-5.6l-3.4,3.8l-4.8-2.7l-0.6-3.6l-3.7,0.9
	l13.3-24.2c12.9-23,31.8-14.2,31.8-14.2c30-1.4,26.3,28.1,26.3,28.1L641.9,222.2z"/>
<ellipse transform="matrix(0.8415 -0.5402 0.5402 0.8415 -125.4196 260.6768)" class="st1" cx="381.6" cy="344.1" rx="10.4" ry="40.5"/>
</svg>
