<?xml version="1.0" encoding="utf-8"?>
<!-- Generator: Adobe Illustrator 25.2.1, SVG Export Plug-In . SVG Version: 6.00 Build 0)  -->
<svg version="1.1" id="레이어_1" xmlns="http://www.w3.org/2000/svg" xmlns:xlink="http://www.w3.org/1999/xlink" x="0px"
	 y="0px" viewBox="0 0 98.1 27.2" style="enable-background:new 0 0 98.1 27.2;" xml:space="preserve">
<style type="text/css">
	.st0{fill:#0052A4;}
	.st1{fill:#FFFFFF;}
	.st2{fill:#FFFFFF;stroke:#FFFFFF;stroke-width:0.75;stroke-miterlimit:10;}
	.st3{fill:none;stroke:#0052A4;stroke-width:0.25;stroke-miterlimit:10;}
</style>
<g>
	<rect x="0.3" y="0.2" class="st0" width="35.7" height="26.7"/>
	<path class="st1" d="M35.7,0.5v26.2H0.5V0.5H35.7 M36.2,0H0v27.2h36.2V0L36.2,0z"/>
</g>
<g>
	<path class="st2" d="M10,18.4H5.5l-0.6,2.4H0.8L5.6,6.5H10l4.8,14.3h-4.2L10,18.4z M9.2,15.3l-1.4-5.1l-1.4,5.1
		C6.4,15.3,9.2,15.3,9.2,15.3z"/>
</g>
<g>
	<path class="st2" d="M13.5,6.5h5.9c1.2,0,2.1,0.2,2.8,0.5s1.3,0.9,1.8,1.5s0.8,1.4,1,2.3s0.3,1.8,0.3,2.8c0,1.5-0.2,2.7-0.5,3.6
		c-0.3,0.8-0.7,1.5-1.3,2.1c-0.6,0.6-1.2,0.9-1.8,1.1c-0.9,0.3-1.7,0.4-2.4,0.4h-5.9V6.5H13.5z M17.4,9.7v7.8h1
		c0.8,0,1.4-0.1,1.8-0.3s0.6-0.6,0.8-1.1c0.2-0.5,0.3-1.3,0.3-2.5c0-1.5-0.2-2.6-0.7-3.1s-1.2-0.8-2.2-0.8H17.4z"/>
</g>
<g>
	<path class="st2" d="M23.5,6.5h12.1V10h-4.1v10.8h-4V10h-4.1V6.5H23.5z"/>
</g>
<g>
	<path class="st0" d="M49.7,5.9c0,4.5-2,7.5-7,9.4l-1.2-1.8c2-0.7,3.3-1.6,4.2-2.6L42,11.3l-0.3-2l5.1-0.2c0.1-0.4,0.2-0.8,0.3-1.2
		h-4.6v-2C42.5,5.9,49.7,5.9,49.7,5.9z M57.3,15.3v6.9H44.8v-6.9h2.6v1.5h7.3v-1.5C54.7,15.3,57.3,15.3,57.3,15.3z M54.7,18.7h-7.3
		v1.5h7.3V18.7z M53.2,14.4h-2.5V5.2h2.5v3.6h1.6V4.9h2.5v9.7h-2.5v-3.8h-1.6V14.4z"/>
	<path class="st0" d="M78.7,18.2v2H62v-2H78.7z M77,15.2c-3.2-0.6-5.6-2.3-6.7-4.5c-1.2,2.2-3.5,3.9-6.7,4.5l-1.1-2.1
		c4.1-0.7,6.4-3.4,6.4-5.9V5.9h2.8v1.3c0,2.6,2.3,5.3,6.4,5.9L77,15.2z"/>
	<path class="st0" d="M90.9,14.6c-2,0.4-3.8,0.4-6.5,0.4h-1.3V6H90v2h-4.4v1.5h3.7v1.9h-3.7V13c1.9,0,3.4-0.1,5-0.4L90.9,14.6z
		 M85.4,16.5h12.7v5.9h-2.6v-3.9H85.4V16.5z M92,11.3h-1.8v-2H92V5.2h2.5v10.5H92V11.3z M98.1,4.9v10.9h-2.5V4.9H98.1z"/>
</g>
<line class="st3" x1="15.5" y1="21.7" x2="10.3" y2="5.9"/>
<path class="st3" d="M21.3,6.2c0,0,1.8,0.4,2.9,1.8c0,0,1.1,1.4,1.4,3"/>
</svg>
