<?xml version="1.0" encoding="utf-8"?>
<!-- Generator: Adobe Illustrator 25.2.1, SVG Export Plug-In . SVG Version: 6.00 Build 0)  -->
<svg version="1.1" id="레이어_1" xmlns="http://www.w3.org/2000/svg" xmlns:xlink="http://www.w3.org/1999/xlink" x="0px"
	 y="0px" viewBox="0 0 200 200" style="enable-background:new 0 0 200 200;" xml:space="preserve">
<style type="text/css">
	.st0{fill:#255AAE;}
</style>
<g>
	<path class="st0" d="M92.4,108v16.9h-12V75.1h19.9c3.8,0,7.2,0.7,10.1,2.1c2.9,1.4,5.2,3.4,6.8,6c1.6,2.6,2.4,5.5,2.4,8.8
		c0,4.9-1.7,8.7-5.2,11.6s-8.2,4.4-14.3,4.4H92.4z M92.4,98.7h7.9c2.3,0,4.1-0.6,5.3-1.7c1.2-1.2,1.8-2.8,1.8-4.9
		c0-2.3-0.6-4.2-1.9-5.6c-1.3-1.4-3-2.1-5.1-2.1h-8V98.7z"/>
</g>
</svg>
